<?xml version="1.0" standalone="no"?>
<!DOCTYPE svg PUBLIC "-//W3C//DTD SVG 20010904//EN"
 "http://www.w3.org/TR/2001/REC-SVG-20010904/DTD/svg10.dtd">
<svg version="1.0" xmlns="http://www.w3.org/2000/svg"
 width="32.000000pt" height="32.000000pt" viewBox="0 0 32.000000 32.000000"
 preserveAspectRatio="xMidYMid meet">
<metadata>
Created by potrace 1.16, written by Peter Selinger 2001-2019
</metadata>
<g transform="translate(0.000000,32.000000) scale(0.100000,-0.100000)"
fill="#000000" stroke="none">
<path d="M0 255 c0 -36 2 -65 4 -65 2 0 16 20 30 45 l27 45 99 0 100 0 19 -37
c39 -73 41 -73 41 5 l0 72 -160 0 -160 0 0 -65z"/>
<path d="M238 83 l-77 -77 -75 72 c-40 40 -77 72 -80 72 -3 0 -6 -34 -6 -75
l0 -75 160 0 160 0 0 80 c0 44 -1 80 -3 80 -1 0 -37 -35 -79 -77z"/>
</g>
</svg>
